<?xml version="1.0" standalone="no"?>
<!DOCTYPE svg PUBLIC "-//W3C//DTD SVG 20010904//EN"
 "http://www.w3.org/TR/2001/REC-SVG-20010904/DTD/svg10.dtd">
<svg version="1.0" xmlns="http://www.w3.org/2000/svg"
 width="401.000000pt" height="401.000000pt" viewBox="0 0 401.000000 401.000000"
 preserveAspectRatio="xMidYMid meet">
<metadata>
Created by potrace 1.14, written by Peter Selinger 2001-2017
</metadata>
<g transform="translate(0.000000,401.000000) scale(0.100000,-0.100000)"
fill="#000000" stroke="none">
<path d="M1962 3820 c-30 -12 -88 -56 -128 -97 -50 -51 -104 -83 -140 -83 -19
0 -78 18 -133 40 -54 22 -114 42 -132 44 -64 7 -106 -32 -165 -154 -45 -94
-76 -127 -131 -138 -25 -6 -56 -8 -67 -6 -48 9 -183 5 -207 -6 -48 -22 -69
-76 -85 -220 -8 -74 -32 -127 -67 -148 -18 -11 -78 -34 -134 -52 -79 -25 -109
-39 -128 -62 -14 -16 -26 -36 -26 -44 -1 -8 -2 -24 -3 -36 -1 -13 4 -50 12
-83 23 -100 30 -168 20 -195 -13 -35 -42 -64 -126 -127 -75 -55 -112 -102
-112 -140 0 -30 16 -64 77 -161 28 -45 55 -96 58 -112 9 -42 -10 -92 -71 -189
-96 -151 -88 -180 81 -306 58 -43 95 -84 96 -109 1 -11 2 -32 3 -46 1 -14 -4
-42 -11 -63 -7 -20 -12 -40 -12 -42 1 -3 -2 -23 -6 -45 -17 -101 -12 -128 31
-165 20 -17 82 -43 144 -60 3 -1 19 -5 35 -10 17 -4 47 -17 67 -28 40 -22 60
-65 72 -152 3 -22 8 -60 12 -85 8 -63 28 -106 59 -126 23 -15 51 -18 169 -18
179 -1 184 -4 265 -166 72 -145 110 -157 281 -84 47 19 100 37 118 40 43 5 92
-21 167 -92 78 -73 112 -94 155 -94 37 0 91 27 126 63 126 129 166 143 279 98
168 -67 189 -72 232 -48 31 17 55 51 101 142 22 44 54 94 72 110 l31 30 138 0
c161 1 192 10 214 63 21 49 25 65 32 140 14 137 48 186 145 207 59 13 154 52
179 73 44 37 49 84 22 195 -40 164 -27 206 91 282 118 77 152 151 106 231 -13
23 -42 72 -65 110 -67 109 -64 139 21 268 54 82 70 126 62 169 -7 35 -45 82
-89 110 -43 28 -68 48 -111 91 -38 39 -38 40 -33 105 2 36 12 98 22 137 34
138 8 175 -160 230 -67 22 -120 46 -136 61 -28 26 -45 74 -54 158 -10 90 -17
120 -36 151 -27 45 -61 56 -159 54 -218 -6 -216 -7 -300 155 -81 157 -113 168
-278 99 -48 -20 -106 -39 -130 -41 -50 -6 -84 13 -172 96 -85 81 -135 102
-188 81z"/>
</g>
</svg>
